<?xml version="1.0" standalone="no"?>
<!DOCTYPE svg PUBLIC "-//W3C//DTD SVG 20010904//EN"
 "http://www.w3.org/TR/2001/REC-SVG-20010904/DTD/svg10.dtd">
<svg version="1.0" xmlns="http://www.w3.org/2000/svg"
 width="470.000000pt" height="470.000000pt" viewBox="0 0 470.000000 470.000000"
 preserveAspectRatio="xMidYMid meet">
<metadata>
Created by potrace 1.11, written by Peter Selinger 2001-2013
</metadata>
<g transform="translate(0.000000,470.000000) scale(0.100000,-0.100000)"
fill="#000000" stroke="none">
<path d="M3345 3394 c-105 -75 -209 -150 -232 -167 -24 -17 -44 -36 -44 -41
-1 -6 -2 -141 -3 -301 l-1 -290 -165 -53 c-91 -29 -171 -55 -177 -57 -10 -3
-13 -95 -13 -414 0 -318 3 -410 13 -413 6 -2 453 -3 992 -3 l980 0 1 368 c0
202 -3 368 -8 368 -4 1 -11 2 -15 3 -5 1 -25 5 -45 9 l-38 8 0 323 0 324 -127
99 c-71 55 -133 102 -140 106 -6 4 -116 -38 -245 -92 -128 -55 -240 -101 -248
-103 -12 -3 -14 20 -15 140 l-1 143 -137 90 c-76 49 -139 89 -140 89 -1 0 -88
-61 -192 -136z"/>
<path d="M583 3025 c-210 -37 -352 -127 -462 -290 -89 -133 -122 -253 -116
-415 7 -193 70 -335 208 -471 104 -102 236 -170 359 -185 67 -8 220 -8 278 1
150 21 301 73 393 133 l37 25 -2 356 -3 356 -300 0 -300 0 0 -90 0 -90 193 0
192 0 0 -213 0 -213 -37 -15 c-78 -33 -189 -55 -278 -56 -155 -1 -253 39 -360
147 -161 162 -194 363 -95 570 59 124 177 230 280 250 14 3 39 8 55 11 94 19
253 7 379 -30 32 -9 59 -16 61 -14 2 3 31 92 49 155 6 19 0 23 -56 41 -35 11
-76 23 -93 26 -16 4 -41 9 -55 12 -54 11 -259 11 -327 -1z"/>
<path d="M1399 3028 c0 -7 -1 -316 -2 -686 -1 -440 1 -676 8 -680 6 -4 56 -7
113 -7 l102 0 0 341 0 341 96 -4 c101 -3 141 -16 170 -56 9 -12 107 -157 218
-322 l201 -299 118 -1 c66 0 121 3 123 7 6 10 -524 800 -554 825 -15 12 -39
25 -54 29 -16 3 -28 9 -28 12 0 6 196 243 273 332 12 14 51 60 85 103 l63 77
-140 0 c-78 0 -141 -3 -141 -7 0 -7 -12 -21 -88 -108 -15 -17 -63 -73 -107
-125 -44 -52 -82 -97 -85 -100 -3 -3 -25 -30 -50 -60 -25 -29 -57 -68 -72 -84
l-28 -30 0 257 0 257 -110 0 c-81 0 -110 -3 -111 -12z"/>
<path d="M635 1536 c-63 -18 -75 -44 -76 -171 0 -60 0 -129 0 -152 l1 -43 40
0 40 0 1 43 c0 23 0 83 0 133 -1 68 2 94 13 103 19 16 125 16 140 1 7 -7 12
-59 12 -138 1 -70 2 -130 3 -134 1 -5 19 -8 41 -8 l40 0 0 145 c0 177 -7 196
-79 220 -53 17 -115 18 -176 1z"/>
<path d="M1803 1538 c-17 -4 -41 -20 -52 -34 -19 -24 -21 -40 -21 -180 l0
-154 40 0 40 0 0 134 c0 104 3 136 14 145 18 15 125 16 139 2 7 -7 12 -63 13
-139 1 -70 2 -130 3 -134 0 -5 19 -8 40 -8 l39 0 0 148 c-1 160 -9 190 -57
213 -32 14 -154 19 -198 7z"/>
<path d="M3953 1543 c-12 -2 -36 -17 -53 -33 l-30 -28 0 -156 0 -156 40 0 40
0 0 134 c0 107 3 136 15 146 19 16 123 16 138 1 8 -8 12 -57 12 -144 l0 -132
41 -3 42 -3 0 148 c-1 81 -5 157 -10 169 -17 37 -66 57 -142 59 -39 1 -81 0
-93 -2z"/>
<path d="M119 1527 c-9 -7 -21 -22 -27 -34 -15 -27 -16 -231 -2 -269 19 -50
33 -53 203 -54 l157 0 0 43 0 42 -139 -2 c-146 -2 -156 1 -145 44 5 16 17 18
145 17 l139 -2 0 43 0 43 -127 0 c-174 0 -162 -2 -160 30 l2 27 135 2 c74 1
138 2 143 2 4 1 7 19 7 41 l0 40 -157 0 c-109 -1 -163 -4 -174 -13z"/>
<path d="M1046 1515 l-28 -25 4 -141 c4 -184 -2 -179 185 -179 129 0 135 1
158 25 23 22 25 32 25 114 l0 90 -82 -2 -83 -2 -1 -30 c-1 -48 5 -56 45 -53
34 3 36 1 36 -27 l0 -30 -100 0 -100 0 0 100 0 100 143 0 142 0 0 43 0 42
-159 0 c-155 0 -159 0 -185 -25z"/>
<path d="M1510 1355 l0 -186 42 3 43 3 -1 180 0 180 -42 3 -42 3 0 -186z"/>
<path d="M2216 1515 c-26 -24 -26 -26 -26 -158 0 -128 1 -135 25 -161 l24 -26
161 0 160 0 0 40 0 40 -67 1 c-227 3 -218 1 -221 32 -2 15 1 27 7 28 6 0 72 1
146 2 l135 0 0 42 0 42 -132 1 c-73 0 -139 1 -146 1 -8 1 -12 11 -10 29 l3 27
140 1 140 0 3 42 3 42 -159 0 c-155 0 -160 -1 -186 -25z"/>
<path d="M2695 1515 c-28 -27 -27 -23 -27 -150 0 -143 1 -145 27 -170 24 -24
28 -25 183 -25 l159 0 0 43 0 42 -144 -2 -144 -2 3 31 3 32 140 0 139 1 2 38
c3 45 1 46 -151 45 -60 0 -116 1 -122 1 -7 1 -13 14 -13 30 l0 28 143 0 142
-1 1 42 1 42 -159 0 c-155 0 -159 -1 -183 -25z"/>
<path d="M3142 1498 l3 -42 135 0 135 -1 3 -27 c4 -32 14 -30 -165 -30 l-113
1 0 -115 0 -114 40 0 40 0 1 58 c1 31 1 61 0 66 -1 5 2 12 8 15 7 5 111 6 178
2 6 -1 15 -20 18 -43 3 -24 8 -52 10 -63 2 -11 4 -23 4 -27 1 -5 19 -8 41 -8
l41 0 -7 58 c-3 31 -9 61 -12 66 -3 6 -5 52 -4 103 2 88 1 95 -22 118 -25 24
-29 25 -181 25 l-156 0 3 -42z"/>
<path d="M3650 1356 l0 -186 39 0 c22 0 41 5 43 13 2 6 3 89 3 182 l-1 170
-42 3 -42 3 0 -185z"/>
<path d="M4377 1533 c-35 -9 -47 -55 -47 -185 1 -172 0 -172 160 -176 196 -6
210 3 210 137 l0 89 -80 -1 c-52 0 -80 -4 -81 -11 0 -6 -3 -23 -5 -38 -5 -30
-6 -30 46 -32 32 -2 35 -5 35 -32 l0 -29 -100 0 -100 0 0 100 0 100 130 2 c72
1 136 2 143 2 7 1 12 16 12 41 l0 40 -152 -1 c-84 -1 -161 -3 -171 -6z"/>
</g>
</svg>
